# xmcd CD database file
#
# Track frame offsets:
#	150
#	14604
#	30178
#	47015
#	65522
#	84151
#	99688
#	120184
#	140796
#	159444
#	180497
#	202065
#	225821
#	247721
#	267430
#
# Disc length: 3751 seconds
#
# Revision: 0
# Processed by: cddbd v1.5.2PL0 Copyright (c) Steve Scherf et al.
# Submitted via: CDex 1.70beta2
#
DISCID=b50ea50f
DTITLE=Various Artist - Salsa Cumbiando Vol. 2
DYEAR=1900
DGENRE=Salsa
TTITLE0=Grupo Saya - Canita Canaveral
TTITLE1=Rayito Colombiano - Basar Tu Piel
TTITLE2=Angeles Azules - Juventud
TTITLE3=Los Askis - Ay Mi Corazon
TTITLE4=Claudio Moran - Paloma Ajena
TTITLE5=Grupo Mojado - Corazon Enamorado
TTITLE6=Chichi Peralta - Procura
TTITLE7=Diablos Locos - So No La Tengo
TTITLE8=Los Llayras - Buscandote
TTITLE9=Grupo Canaveral - Echarme al Olivido
TTITLE10=Gali Galeano - Ga Cita
TTITLE11=Chichi Peralta - Amor Narcotico
TTITLE12=Grupo Saya - Enamorada De Ti
TTITLE13=Estrellas Anidas - Vuelve
TTITLE14=Sinba Musical - Oasis De Amor
EXTD=
EXTT0=
EXTT1=
EXTT2=
EXTT3=
EXTT4=
EXTT5=
EXTT6=
EXTT7=
EXTT8=
EXTT9=
EXTT10=
EXTT11=
EXTT12=
EXTT13=
EXTT14=
PLAYORDER=
